<svg width="360" height="324" viewBox="0 0 360 324" fill="none" xmlns="http://www.w3.org/2000/svg">
<path d="M429.428 323.5C429.428 323.5 239.428 333.5 207.928 257C176.428 180.5 237.428 169 249.928 104C262.428 39 258.928 -50 258.928 -50L429.428 -45V323.5Z" fill="#58BEE7"/>
<path d="M165.5 289C75.5 292.5 2 234 2 234H-111L-120 -98.5L121.5 -117L420.5 25.5L270.5 120C270.5 120 179.5 179 221 210C262.5 241 255.5 285.5 165.5 289Z" fill="#40454F"/>
<path d="M-22 213.5C-22 213.5 -4 154.5 71.5 77C147 -0.499939 139.264 67.48 209 32C380 -54.9999 303 -71.9999 249.5 -67.5C196 -63 -22 -78 -22 -78V213.5Z" fill="#FFAE47"/>
</svg>
